<?xml version="1.0" encoding="UTF-8"?>
<svg id="Camada_1" xmlns="http://www.w3.org/2000/svg" version="1.1" viewBox="0 0 729.1 169.1">
  <!-- Generator: Adobe Illustrator 29.1.0, SVG Export Plug-In . SVG Version: 2.1.0 Build 142)  -->
  <defs>
    <style>
      .st0 {
        fill: #fff;
      }

      .st1 {
        fill: #3cc7fe;
      }

      .st2 {
        fill: #187dff;
      }
    </style>
  </defs>
  <g>
    <path class="st0" d="M215.6,66.8v18.2h31.9v12.8h-31.9v25.1h-15.9v-54.9c0-7.7,6.3-14,14-14h38.1v12.8h-36.1Z"/>
    <path class="st0" d="M261.5,49.9h15.4v73h-15.4V49.9h0Z"/>
    <path class="st0" d="M287.2,96.4c0-15.9,12.3-27.3,29.1-27.3s29,11.3,29,27.3-12.2,27.3-29,27.3-29.1-11.3-29.1-27.3ZM329.8,96.4c0-9.2-5.8-14.7-13.5-14.7s-13.6,5.5-13.6,14.7,5.9,14.7,13.6,14.7,13.5-5.5,13.5-14.7Z"/>
    <path class="st0" d="M439.1,69.9l-19.2,52.9h-14.8l-11.9-32.9-12.3,32.9h-14.8l-19.1-52.9h14.5l12.5,35.8,13-35.8h13l12.6,35.8,12.9-35.8h13.6Z"/>
    <path class="st0" d="M507.1,79c0,15.4-11.5,24.9-29.9,24.9h-13.9v19h-15.9v-54.9c0-7.7,6.3-14,14-14h15.8c18.4,0,29.9,9.5,29.9,25h0ZM491,79c0-7.6-4.9-12-14.7-12h-13v23.9h13c9.7,0,14.7-4.4,14.7-11.9Z"/>
    <path class="st0" d="M515.5,54c0-4.8,3.8-8.6,9.5-8.6s9.5,3.5,9.5,8.3-3.8,8.9-9.5,8.9-9.5-3.7-9.5-8.6h0ZM517.4,69.9h15.4v52.9h-15.4v-52.9Z"/>
    <path class="st0" d="M547,49.9h15.4v73h-15.4V49.9Z"/>
    <path class="st0" d="M572.7,96.4c0-15.9,12.3-27.3,29.1-27.3s29,11.3,29,27.3-12.2,27.3-29,27.3-29.1-11.3-29.1-27.3ZM615.3,96.4c0-9.2-5.8-14.7-13.5-14.7s-13.6,5.5-13.6,14.7,5.9,14.7,13.6,14.7,13.5-5.5,13.5-14.7Z"/>
    <path class="st0" d="M675.2,120.3c-3.2,2.3-7.8,3.3-12.5,3.3-12.5,0-19.8-6.4-19.8-19v-21.8h-8.2v-11.8h8.2v-12.9h15.4v12.9h13.2v11.8h-13.2v21.6c0,4.5,2.5,7,6.6,7s4.5-.7,6.2-2l4.1,10.8Z"/>
  </g>
  <g>
    <path class="st2" d="M173.5,7.9c0,8.2-3.3,15.7-8.7,21.1-5.4,5.4-12.9,8.7-21.1,8.7h-32.6c-10.6,0-19.1,8.6-19.1,19.2v56.2c-3.2,3.9-7.1,7.6-11.8,10.8-2.2,1.5-4.5,2.8-6.9,3.9-4.4,2.1-8.1,5.1-11.2,8.6V56.4c0-26.8,21.7-48.5,48.5-48.5h62.9Z"/>
    <path class="st1" d="M168.3,59.3c0,7.7-3.1,14.6-8.2,19.7-5,5-12,8.2-19.7,8.2h-7.4c-.9,4.7-2.3,10.2-4.4,16.1-3,8.2-6.9,15.8-11.6,22.5-5.9,8.4-13.1,15.5-21.5,21.2-1.2.8-2.5,1.6-3.7,2.4-5.8,3.4-12,6.2-18.5,8.2-6.2,1.9-12.7,3.2-19.3,3.7-.7-9.2,2.3-18.1,8-24.8,3-3.5,6.8-6.5,11.2-8.6,2.4-1.2,4.7-2.5,6.9-3.9,4.7-3.2,8.6-6.9,11.8-10.8,13.1-16,14.9-35.9,15.1-40.5.2-3.7,1.8-7,4.3-9.4,2.5-2.4,5.9-3.8,9.6-3.8h47.5Z"/>
  </g>
</svg>